<svg xmlns="http://www.w3.org/2000/svg" viewBox="0 0 225 28" width="191" height="24">
	<style>
		tspan { white-space:pre }
	</style>
	<path id="Numberplates.io " fill="#000000" d="M0.54 1L0.54 22L4.05 22L4.05 7.78L14.04 22L17.07 22L17.07 1L13.53 1L13.53 15.22L3.6 1ZM31.26 7.33L31.26 15.28C31.26 17.59 29.82 19.09 27.66 19.09C25.5 19.09 24.09 17.59 24.09 15.28L24.09 7.33L20.76 7.33L20.76 15.67C20.76 19.78 23.07 22.3 26.85 22.3C28.8 22.3 30.33 21.34 31.26 19.69L31.26 22L34.62 22L34.62 7.33ZM55.14 7.03C53.13 7.03 51.3 8.02 50.46 9.61C49.56 7.84 48.06 7.03 45.93 7.03C44.4 7.03 42.54 7.6 41.46 9.4L41.46 7.33L38.13 7.33L38.13 22L41.46 22L41.46 13.78C41.46 11.26 43.11 10.24 44.73 10.24C46.71 10.24 47.94 11.56 47.94 13.78L47.94 22L51.3 22L51.3 13.78C51.3 11.29 52.92 10.24 54.57 10.24C56.55 10.24 57.75 11.59 57.75 13.78L57.75 22L61.14 22L61.14 13.03C61.14 9.34 58.68 7.03 55.14 7.03ZM73.2 7.03C70.83 7.03 69.03 8.11 67.98 9.97L67.98 1L64.65 1L64.65 22L67.98 22L67.98 19.36C69.03 21.22 70.83 22.3 73.2 22.3C77.1 22.3 80.19 18.88 80.19 14.65C80.19 10.42 77.1 7.03 73.2 7.03ZM72.48 19.12C69.9 19.12 67.98 17.2 67.98 14.65C67.98 12.13 69.9 10.21 72.48 10.21C74.97 10.21 76.92 12.19 76.92 14.65C76.92 17.14 74.97 19.12 72.48 19.12ZM96.69 14.35C96.69 10.06 93.48 7.03 89.52 7.03C85.29 7.03 81.96 10.33 81.96 14.59C81.96 18.97 85.29 22.3 89.58 22.3C93.18 22.3 95.97 20.26 96.51 17.17L93.15 17.17C92.85 18.43 91.44 19.27 89.64 19.27C87.27 19.27 85.77 17.92 85.35 15.76L96.6 15.76C96.66 15.49 96.69 14.74 96.69 14.35ZM85.44 12.91C85.92 11.11 87.36 10.06 89.34 10.06C91.35 10.06 92.76 11.23 93.06 12.91ZM106.77 7.03C105.03 7.03 103.68 7.87 102.81 9.28L102.81 7.33L99.48 7.33L99.48 22L102.81 22L102.81 14.17C102.81 11.53 104.55 10.06 106.68 10.06C107.16 10.06 107.67 10.15 108.15 10.27L108.15 7.21C107.7 7.12 107.22 7.03 106.77 7.03ZM119.1 7.03C116.73 7.03 114.93 8.11 113.88 9.97L113.88 7.33L110.55 7.33L110.55 27.13L113.88 27.13L113.88 19.36C114.93 21.22 116.73 22.3 119.1 22.3C123 22.3 126.09 18.91 126.09 14.68C126.09 10.45 123 7.03 119.1 7.03ZM118.38 19.12C115.8 19.12 113.88 17.2 113.88 14.68C113.88 12.13 115.8 10.21 118.38 10.21C120.87 10.21 122.82 12.19 122.82 14.68C122.82 17.14 120.87 19.12 118.38 19.12ZM132.06 1L128.73 1L128.73 22L132.06 22ZM146.79 7.33L146.79 9.91C145.74 8.08 143.94 7.03 141.6 7.03C137.7 7.03 134.58 10.42 134.58 14.65C134.58 18.88 137.7 22.3 141.6 22.3C143.94 22.3 145.74 21.25 146.79 19.42L146.79 22L150.15 22L150.15 7.33ZM142.32 19.12C139.83 19.12 137.88 17.14 137.88 14.65C137.88 12.19 139.83 10.21 142.32 10.21C144.87 10.21 146.79 12.13 146.79 14.65C146.79 17.2 144.87 19.12 142.32 19.12ZM162.27 10.51L162.27 7.33L158.43 7.33L158.43 3.4L155.07 3.4L155.07 7.33L152.28 7.33L152.28 10.51L155.07 10.51L155.07 16.48C155.07 20.2 157.23 22.18 160.47 22.18C161.01 22.18 161.76 22.12 162.27 22L162.27 18.91C161.94 19 161.55 19.03 161.19 19.03C159.57 19.03 158.43 18.28 158.43 16.42L158.43 10.51ZM178.11 14.35C178.11 10.06 174.9 7.03 170.94 7.03C166.71 7.03 163.38 10.33 163.38 14.59C163.38 18.97 166.71 22.3 171 22.3C174.6 22.3 177.39 20.26 177.93 17.17L174.57 17.17C174.27 18.43 172.86 19.27 171.06 19.27C168.69 19.27 167.19 17.92 166.77 15.76L178.02 15.76C178.08 15.49 178.11 14.74 178.11 14.35ZM166.86 12.91C167.34 11.11 168.78 10.06 170.76 10.06C172.77 10.06 174.18 11.23 174.48 12.91ZM186.33 22.3C189.57 22.3 192 20.32 192 17.68C192 11.56 183.48 14.29 183.48 11.32C183.48 10.39 184.41 9.82 185.73 9.82C187.26 9.82 188.28 10.63 188.43 11.62L191.79 11.62C191.46 8.65 188.82 7.03 185.79 7.03C182.37 7.03 180.24 8.98 180.24 11.53C180.24 17.11 188.73 14.56 188.73 17.71C188.73 18.73 187.77 19.42 186.15 19.42C184.5 19.42 183.24 18.58 183.12 17.29L179.91 17.29C180.21 20.44 182.73 22.3 186.33 22.3ZM196.92 22.3C198.24 22.3 199.23 21.28 199.23 20.02C199.23 18.73 198.24 17.74 196.92 17.74C195.63 17.74 194.61 18.73 194.61 20.02C194.61 21.28 195.63 22.3 196.92 22.3ZM204.3 0.52C203.13 0.52 202.17 1.51 202.17 2.65C202.17 3.85 203.13 4.81 204.3 4.81C205.47 4.81 206.46 3.85 206.46 2.65C206.46 1.51 205.47 0.52 204.3 0.52ZM202.62 7.33L202.62 22L205.95 22L205.95 7.33ZM216.33 7.03C212.04 7.03 208.74 10.33 208.74 14.68C208.74 19.03 212.04 22.3 216.33 22.3C220.62 22.3 223.95 19.03 223.95 14.68C223.95 10.33 220.62 7.03 216.33 7.03ZM216.33 10.24C218.76 10.24 220.65 12.16 220.65 14.68C220.65 17.17 218.76 19.09 216.33 19.09C213.9 19.09 212.04 17.17 212.04 14.68C212.04 12.16 213.9 10.24 216.33 10.24Z" />
</svg>